<svg xmlns="http://www.w3.org/2000/svg" viewBox="0 0 64 64"><g data-name="Online Profit"><path fill="#231f20" d="M57,10H53v2h4a3,3,0,0,1,3,3V40H4V15a3,3,0,0,1,3-3H44V10H7a5.006,5.006,0,0,0-5,5V45a5.006,5.006,0,0,0,5,5H25v6H22a1,1,0,0,0-1,1v3H19v2H45V60H43V57a1,1,0,0,0-1-1H39V50H57a5.006,5.006,0,0,0,5-5V15A5.006,5.006,0,0,0,57,10ZM41,60H23V58H41Zm-4-4H27V50H37Zm20-8H7a3,3,0,0,1-3-3V42H60v3A3,3,0,0,1,57,48Z"/><rect width="2" height="2" x="52" y="36" fill="#231f20"/><rect width="2" height="2" x="56" y="36" fill="#231f20"/><rect width="2" height="2" x="48" y="36" fill="#231f20"/><path fill="#231f20" d="M36.272,21.294A2.952,2.952,0,0,0,35,21a3,3,0,0,0-2.816,2H21.816a2.991,2.991,0,1,0-5.523,2.272l-4.026,4.019A2.96,2.96,0,0,0,11,29a3.032,3.032,0,1,0,2.69,1.7l4.011-4A2.96,2.96,0,0,0,21.816,25H32.184A2.993,2.993,0,0,0,38,24a2.95,2.95,0,0,0-.308-1.3L52.7,7.693A2.963,2.963,0,0,0,54,8a3,3,0,1,0-3-3,2.971,2.971,0,0,0,.294,1.273ZM11,33a1,1,0,1,1,1-1A1,1,0,0,1,11,33Zm8-8a1,1,0,1,1,1-1A1,1,0,0,1,19,25Zm16,0a1,1,0,1,1,1-1A1,1,0,0,1,35,25ZM54,4a1,1,0,1,1-1,1A1,1,0,0,1,54,4Z"/><rect width="6" height="2" x="50" y="19" fill="#231f20"/><rect width="8" height="2" x="48" y="23" fill="#231f20"/><path fill="#231f20" d="M10,17h3V15H9a1,1,0,0,0-1,1v4h2Z"/><rect width="2" height="2" x="15" y="15" fill="#231f20"/></g></svg>